<mxfile host="Electron" agent="Mozilla/5.0 (X11; Linux x86_64) AppleWebKit/537.36 (KHTML, like Gecko) draw.io/24.7.5 Chrome/126.0.6478.183 Electron/31.3.0 Safari/537.36" version="24.7.5">
  <diagram name="Page-1" id="MLwT90gkbU0gql-JxhM4">
    <mxGraphModel dx="1434" dy="822" grid="1" gridSize="10" guides="1" tooltips="1" connect="1" arrows="1" fold="1" page="1" pageScale="1" pageWidth="850" pageHeight="1100" math="0" shadow="0">
      <root>
        <mxCell id="0" />
        <mxCell id="1" parent="0" />
        <mxCell id="nIAZ2dd3incH0YXqtL2k-1" value="&lt;div&gt;&lt;br&gt;&lt;/div&gt;&lt;div&gt;&lt;br&gt;&lt;/div&gt;&lt;div&gt;&lt;br&gt;&lt;/div&gt;&lt;div style=&quot;text-align: left;&quot;&gt;&lt;span style=&quot;background-color: initial;&quot;&gt;&lt;b&gt;Someone else&#39;s&amp;nbsp;&lt;/b&gt;&lt;/span&gt;&lt;/div&gt;&lt;div style=&quot;text-align: left;&quot;&gt;&lt;span style=&quot;background-color: initial;&quot;&gt;&lt;b&gt;Recorder server&lt;/b&gt;&lt;/span&gt;&lt;/div&gt;&lt;div style=&quot;text-align: left;&quot;&gt;&lt;span style=&quot;background-color: initial;&quot;&gt;(Anyone can run one)&lt;/span&gt;&lt;/div&gt;" style="shape=cylinder3;whiteSpace=wrap;html=1;boundedLbl=1;backgroundOutline=1;size=15;fillColor=#dae8fc;strokeColor=#6c8ebf;" parent="1" vertex="1">
          <mxGeometry x="817.5" y="1160" width="170" height="240" as="geometry" />
        </mxCell>
        <mxCell id="nIAZ2dd3incH0YXqtL2k-3" value="&lt;div style=&quot;text-align: justify;&quot;&gt;&lt;span style=&quot;background-color: initial;&quot;&gt;Agora Front&lt;/span&gt;&lt;/div&gt;" style="shape=document;whiteSpace=wrap;html=1;boundedLbl=1;fontStyle=1;fillColor=#f5f5f5;fontColor=#333333;strokeColor=#666666;" parent="1" vertex="1">
          <mxGeometry x="490" y="1130" width="210" height="220" as="geometry" />
        </mxCell>
        <mxCell id="nIAZ2dd3incH0YXqtL2k-34" style="edgeStyle=orthogonalEdgeStyle;rounded=0;orthogonalLoop=1;jettySize=auto;html=1;entryX=0.5;entryY=0;entryDx=0;entryDy=0;exitX=1;exitY=0.5;exitDx=0;exitDy=0;exitPerimeter=0;" parent="1" source="nIAZ2dd3incH0YXqtL2k-35" target="nIAZ2dd3incH0YXqtL2k-54" edge="1">
          <mxGeometry relative="1" as="geometry">
            <mxPoint x="717.5" y="1305" as="sourcePoint" />
            <Array as="points">
              <mxPoint x="870" y="1005" />
            </Array>
          </mxGeometry>
        </mxCell>
        <mxCell id="nIAZ2dd3incH0YXqtL2k-35" value="Someone else&#39;s &lt;b&gt;Nostr Relay&lt;/b&gt;" style="shape=cylinder3;whiteSpace=wrap;html=1;boundedLbl=1;backgroundOutline=1;size=15;fillColor=#dae8fc;strokeColor=#6c8ebf;" parent="1" vertex="1">
          <mxGeometry x="770" y="950" width="70" height="90" as="geometry" />
        </mxCell>
        <mxCell id="nIAZ2dd3incH0YXqtL2k-43" style="edgeStyle=orthogonalEdgeStyle;rounded=0;orthogonalLoop=1;jettySize=auto;html=1;startArrow=classic;startFill=1;" parent="1" source="nIAZ2dd3incH0YXqtL2k-44" target="nIAZ2dd3incH0YXqtL2k-3" edge="1">
          <mxGeometry relative="1" as="geometry" />
        </mxCell>
        <mxCell id="nIAZ2dd3incH0YXqtL2k-44" value="&lt;b&gt;Agora back&lt;/b&gt;" style="shape=cylinder3;whiteSpace=wrap;html=1;boundedLbl=1;backgroundOutline=1;size=15;fillColor=#f5f5f5;fontColor=#333333;strokeColor=#666666;align=left;" parent="1" vertex="1">
          <mxGeometry x="510" y="830" width="170" height="250" as="geometry" />
        </mxCell>
        <mxCell id="nIAZ2dd3incH0YXqtL2k-51" style="edgeStyle=orthogonalEdgeStyle;rounded=0;orthogonalLoop=1;jettySize=auto;html=1;startArrow=classic;startFill=1;entryX=0.5;entryY=0;entryDx=0;entryDy=0;entryPerimeter=0;" parent="1" source="nIAZ2dd3incH0YXqtL2k-52" target="nIAZ2dd3incH0YXqtL2k-71" edge="1">
          <mxGeometry relative="1" as="geometry">
            <mxPoint x="660" y="1045" as="targetPoint" />
          </mxGeometry>
        </mxCell>
        <mxCell id="nIAZ2dd3incH0YXqtL2k-52" value="Agora&#39;s own &lt;b&gt;DB&lt;/b&gt;" style="shape=cylinder3;whiteSpace=wrap;html=1;boundedLbl=1;backgroundOutline=1;size=15;fillColor=#f5f5f5;fontColor=#333333;strokeColor=#666666;" parent="1" vertex="1">
          <mxGeometry x="607.5" y="880" width="55" height="80" as="geometry" />
        </mxCell>
        <mxCell id="nIAZ2dd3incH0YXqtL2k-54" value="Nostr&lt;div&gt;Client&lt;/div&gt;" style="rhombus;whiteSpace=wrap;html=1;fillColor=#dae8fc;strokeColor=#6c8ebf;" parent="1" vertex="1">
          <mxGeometry x="830" y="1200" width="80" height="80" as="geometry" />
        </mxCell>
        <mxCell id="nIAZ2dd3incH0YXqtL2k-56" value="Someone else&#39;s own &lt;b&gt;DB&lt;/b&gt;" style="shape=cylinder3;whiteSpace=wrap;html=1;boundedLbl=1;backgroundOutline=1;size=15;fillColor=#dae8fc;strokeColor=#6c8ebf;" parent="1" vertex="1">
          <mxGeometry x="920" y="1060" width="60" height="80" as="geometry" />
        </mxCell>
        <mxCell id="nIAZ2dd3incH0YXqtL2k-57" style="edgeStyle=orthogonalEdgeStyle;rounded=0;orthogonalLoop=1;jettySize=auto;html=1;entryX=0.5;entryY=1;entryDx=0;entryDy=0;entryPerimeter=0;dashed=1;" parent="1" source="nIAZ2dd3incH0YXqtL2k-54" target="nIAZ2dd3incH0YXqtL2k-56" edge="1">
          <mxGeometry relative="1" as="geometry">
            <Array as="points">
              <mxPoint x="950" y="1240" />
            </Array>
          </mxGeometry>
        </mxCell>
        <mxCell id="nIAZ2dd3incH0YXqtL2k-71" value="Local Polis fork" style="shape=cylinder3;whiteSpace=wrap;html=1;boundedLbl=1;backgroundOutline=1;size=15;fillColor=#f5f5f5;fontColor=#333333;strokeColor=#666666;" parent="1" vertex="1">
          <mxGeometry x="605" y="990" width="60" height="80" as="geometry" />
        </mxCell>
        <mxCell id="nIAZ2dd3incH0YXqtL2k-73" value="Embedded Polis views" style="rounded=1;whiteSpace=wrap;html=1;fillColor=#f5f5f5;fontColor=#333333;strokeColor=#666666;" parent="1" vertex="1">
          <mxGeometry x="590" y="1140" width="100" height="50" as="geometry" />
        </mxCell>
        <mxCell id="nIAZ2dd3incH0YXqtL2k-74" value="1) Login with email address&amp;nbsp;&lt;span style=&quot;background-color: initial;&quot;&gt;through&amp;nbsp;&lt;/span&gt;&lt;div&gt;&lt;span style=&quot;background-color: initial;&quot;&gt;local-first auth&lt;/span&gt;&lt;/div&gt;" style="text;html=1;align=center;verticalAlign=middle;resizable=0;points=[];autosize=1;strokeColor=none;fillColor=none;" parent="1" vertex="1">
          <mxGeometry x="200" y="1050" width="220" height="40" as="geometry" />
        </mxCell>
        <mxCell id="nIAZ2dd3incH0YXqtL2k-76" style="edgeStyle=orthogonalEdgeStyle;rounded=0;orthogonalLoop=1;jettySize=auto;html=1;entryX=0;entryY=0.25;entryDx=0;entryDy=0;" parent="1" source="nIAZ2dd3incH0YXqtL2k-75" target="nIAZ2dd3incH0YXqtL2k-3" edge="1">
          <mxGeometry relative="1" as="geometry">
            <Array as="points">
              <mxPoint x="313" y="990" />
              <mxPoint x="313" y="1185" />
            </Array>
          </mxGeometry>
        </mxCell>
        <mxCell id="nIAZ2dd3incH0YXqtL2k-75" value="User" style="shape=umlActor;verticalLabelPosition=bottom;verticalAlign=top;html=1;outlineConnect=0;" parent="1" vertex="1">
          <mxGeometry x="105" y="960" width="30" height="60" as="geometry" />
        </mxCell>
        <mxCell id="nIAZ2dd3incH0YXqtL2k-78" value="User&#39;s &lt;span style=&quot;background-color: initial;&quot;&gt;RariMe Wallet&lt;/span&gt;" style="swimlane;whiteSpace=wrap;html=1;startSize=30;" parent="1" vertex="1">
          <mxGeometry x="30" y="1230" width="142.5" height="150" as="geometry" />
        </mxCell>
        <mxCell id="nIAZ2dd3incH0YXqtL2k-79" style="edgeStyle=orthogonalEdgeStyle;rounded=0;orthogonalLoop=1;jettySize=auto;html=1;entryX=-0.019;entryY=0.795;entryDx=0;entryDy=0;entryPerimeter=0;" parent="1" source="nIAZ2dd3incH0YXqtL2k-78" target="nIAZ2dd3incH0YXqtL2k-3" edge="1">
          <mxGeometry relative="1" as="geometry">
            <mxPoint x="476.25" y="1305" as="targetPoint" />
          </mxGeometry>
        </mxCell>
        <mxCell id="nIAZ2dd3incH0YXqtL2k-80" value="2) Associate zk proof of passport&amp;nbsp;&lt;div&gt;&lt;span style=&quot;background-color: initial;&quot;&gt;to logged-in account&#39;s public key,&amp;nbsp;&lt;/span&gt;&lt;/div&gt;&lt;div&gt;&lt;span style=&quot;background-color: initial;&quot;&gt;containing disclosure of citizenship&amp;nbsp;&lt;/span&gt;&lt;div&gt;&lt;div&gt;&amp;amp; eventually other attributes as well as a&amp;nbsp;&lt;/div&gt;&lt;div&gt;unique &amp;amp; verifiable yet anonymous identifier&lt;/div&gt;&lt;div&gt;for the scope of the whole Agora app&lt;/div&gt;&lt;/div&gt;&lt;/div&gt;" style="text;html=1;align=center;verticalAlign=middle;resizable=0;points=[];autosize=1;strokeColor=none;fillColor=none;" parent="1" vertex="1">
          <mxGeometry x="186.25" y="1210" width="260" height="100" as="geometry" />
        </mxCell>
        <mxCell id="nIAZ2dd3incH0YXqtL2k-81" style="edgeStyle=orthogonalEdgeStyle;rounded=0;orthogonalLoop=1;jettySize=auto;html=1;entryX=0.043;entryY=0.882;entryDx=0;entryDy=0;entryPerimeter=0;" parent="1" source="nIAZ2dd3incH0YXqtL2k-82" target="nIAZ2dd3incH0YXqtL2k-3" edge="1">
          <mxGeometry relative="1" as="geometry">
            <mxPoint x="370" y="1450" as="targetPoint" />
            <Array as="points">
              <mxPoint x="499" y="1430" />
            </Array>
          </mxGeometry>
        </mxCell>
        <mxCell id="nIAZ2dd3incH0YXqtL2k-82" value="User" style="shape=umlActor;verticalLabelPosition=bottom;verticalAlign=top;html=1;outlineConnect=0;" parent="1" vertex="1">
          <mxGeometry x="80" y="1420" width="30" height="60" as="geometry" />
        </mxCell>
        <mxCell id="nIAZ2dd3incH0YXqtL2k-83" value="3) Use local-first account&amp;nbsp;&lt;div&gt;to interact with app&lt;/div&gt;" style="text;html=1;align=center;verticalAlign=middle;resizable=0;points=[];autosize=1;strokeColor=none;fillColor=none;" parent="1" vertex="1">
          <mxGeometry x="215" y="1385" width="160" height="40" as="geometry" />
        </mxCell>
        <mxCell id="nIAZ2dd3incH0YXqtL2k-29" value="&lt;b&gt;Nostr&lt;/b&gt;&lt;div&gt;&lt;b&gt;Client&lt;/b&gt;&lt;/div&gt;" style="rhombus;whiteSpace=wrap;html=1;fillColor=#f5f5f5;fontColor=#333333;strokeColor=#666666;" parent="1" vertex="1">
          <mxGeometry x="515" y="990" width="80" height="80" as="geometry" />
        </mxCell>
        <mxCell id="nIAZ2dd3incH0YXqtL2k-84" value="Verifiable Moderation:&lt;div&gt;Only broadcast&lt;div&gt;&lt;b&gt;proofs&lt;/b&gt;, not payloads&lt;/div&gt;&lt;/div&gt;" style="text;html=1;align=center;verticalAlign=middle;resizable=0;points=[];autosize=1;strokeColor=none;fillColor=none;" parent="1" vertex="1">
          <mxGeometry x="665" y="1070" width="140" height="60" as="geometry" />
        </mxCell>
        <mxCell id="I_-AG5c3y0w_rHZlZTRH-2" style="edgeStyle=orthogonalEdgeStyle;rounded=0;orthogonalLoop=1;jettySize=auto;html=1;entryX=0.5;entryY=1;entryDx=0;entryDy=0;entryPerimeter=0;" edge="1" parent="1" source="nIAZ2dd3incH0YXqtL2k-29" target="nIAZ2dd3incH0YXqtL2k-35">
          <mxGeometry relative="1" as="geometry">
            <Array as="points">
              <mxPoint x="805" y="1070" />
            </Array>
          </mxGeometry>
        </mxCell>
      </root>
    </mxGraphModel>
  </diagram>
</mxfile>
